<svg xmlns="http://www.w3.org/2000/svg" width="512" viewBox="0 0 512 512" height="512" id="Flat"><path fill="#ff3636" d="m477.8 489.93-62.71 12a7.991 7.991 0 0 1 -9.27-6.31l-21.49-98.74-.38 16.45a42.776 42.776 0 0 1 -9.2 27.95l-2.89 3.59a10.39 10.39 0 0 0 -2.3 6.17l-.4 11.06c-.15 4.37-3.45 7.82-7.47 7.82h-211.38c-4.02 0-7.32-3.45-7.47-7.82l-.4-11.06a10.39 10.39 0 0 0 -2.3-6.17l-2.89-3.59a42.776 42.776 0 0 1 -9.2-27.95l-.38-16.45-21.49 98.74a7.991 7.991 0 0 1 -9.27 6.31l-62.71-12a8.1 8.1 0 0 1 -6.4-9.38c4.27-24.97 27.29-158.16 43.03-249.2a141.265 141.265 0 0 1 69.89-99.47 136.671 136.671 0 0 1 28.28-11.87h174a136.984 136.984 0 0 1 28.29 11.87 141.3 141.3 0 0 1 69.88 99.47c15.74 91.04 38.76 224.23 43.03 249.2a8.1 8.1 0 0 1 -6.4 9.38z"></path><path fill="#c61e1e" d="m371.29 131.88a50.056 50.056 0 0 1 -19.66 33c-23.93 17.74-60.4 34.74-95.63 36.82-35.23-2.08-71.7-19.08-95.62-36.82a50.056 50.056 0 0 1 -19.66-33 136.671 136.671 0 0 1 28.28-11.87h174a136.984 136.984 0 0 1 28.29 11.87z"></path><path fill="#ff3636" d="m364.023 96.31c-4.705-45.2-40.11-83.38-108.019-83.38s-103.314 38.179-108.019 83.38a47.026 47.026 0 0 0 18.625 42.709c22.368 16.581 56.46 32.481 89.39 34.415 32.938-1.934 67.03-17.834 89.4-34.415a47.028 47.028 0 0 0 18.623-42.709z"></path><g fill="#c61e1e"><path d="m353.978 453.558h-195.963a6 6 0 0 1 0-12h195.963a6 6 0 1 1 0 12z"></path><path d="m403.485 490.528a6 6 0 0 1 -1.154-11.888l61.569-12.14a6 6 0 1 1 2.322 11.773l-61.573 12.143a6.048 6.048 0 0 1 -1.164.112z"></path><path d="m108.515 490.528a6.048 6.048 0 0 1 -1.167-.114l-61.573-12.143a6 6 0 1 1 2.325-11.771l61.572 12.142a6 6 0 0 1 -1.154 11.888z"></path><path d="m347.268 410.429a5.97 5.97 0 0 1 -3.237-.952c-18.524-11.9-33.179-26.875-43.558-44.516a6 6 0 1 1 10.343-6.085c9.416 16 22.773 29.632 39.7 40.5a6 6 0 0 1 -3.249 11.049z"></path><path d="m164.732 410.429a6 6 0 0 1 -3.249-11.049c16.928-10.872 30.285-24.5 39.7-40.5a6 6 0 0 1 10.343 6.085c-10.379 17.641-25.034 32.618-43.558 44.516a5.97 5.97 0 0 1 -3.236.948z"></path></g><rect y="243.469" x="191.833" width="128.333" rx="16.552" height="91.031" fill="#ffaa39"></rect><path fill="#c61e1e" d="m303.615 340.5h-95.23a22.578 22.578 0 0 1 -22.552-22.552v-57.927a22.577 22.577 0 0 1 22.552-22.552h95.23a22.577 22.577 0 0 1 22.552 22.552v57.927a22.578 22.578 0 0 1 -22.552 22.552zm-95.23-91.031a10.564 10.564 0 0 0 -10.552 10.552v57.927a10.564 10.564 0 0 0 10.552 10.552h95.23a10.564 10.564 0 0 0 10.552-10.552v-57.927a10.564 10.564 0 0 0 -10.552-10.552z"></path><path fill="#c61e1e" d="m256 151.116a39.243 39.243 0 0 1 -29.115-13.07c-20.468-22.773-34.794-58.177-38.7-68.485a6 6 0 0 1 11.223-4.249c3.716 9.815 17.324 43.49 36.4 64.713a26.966 26.966 0 0 0 40.381 0c19.074-21.223 32.683-54.9 36.4-64.713a6 6 0 1 1 11.222 4.249c-3.9 10.308-18.228 45.712-38.7 68.485a39.247 39.247 0 0 1 -29.111 13.07z"></path><path fill="#fff" d="m220.8 221.25c-.142 0-.284 0-.427-.015a6 6 0 0 1 -5.565-6.406c2.329-33.113 18.784-59.73 19.484-60.847a6 6 0 0 1 10.173 6.364c-.155.249-15.574 25.29-17.686 55.325a6 6 0 0 1 -5.979 5.579z"></path><path fill="#fff" d="m291.2 221.25a6 6 0 0 1 -5.979-5.579c-2.12-30.157-17.528-55.072-17.683-55.32a6 6 0 1 1 10.17-6.369c.7 1.117 17.155 27.734 19.484 60.847a6 6 0 0 1 -5.565 6.406c-.141.01-.283.015-.427.015z"></path><path fill="#ff3636" d="m361.692 475.925h-211.384c-7.276 0-13.191-5.979-13.468-13.612l-.4-11.056a4.468 4.468 0 0 0 -.97-2.628l-2.891-3.59a48.573 48.573 0 0 1 -10.524-31.884 6 6 0 0 1 11.995.345 36.568 36.568 0 0 0 7.876 24.013l2.89 3.589a16.544 16.544 0 0 1 3.616 9.722l.4 11.055c.043 1.2.812 2.046 1.475 2.046h211.385c.663 0 1.432-.841 1.475-2.046l.4-11.055a16.538 16.538 0 0 1 3.617-9.722l2.889-3.589a36.568 36.568 0 0 0 7.876-24.013 6 6 0 1 1 12-.345 48.573 48.573 0 0 1 -10.524 31.884l-2.89 3.589a4.468 4.468 0 0 0 -.971 2.629l-.4 11.056c-.281 7.633-6.196 13.612-13.472 13.612z"></path><path fill="#c61e1e" d="m383.949 419.328h-.143a6 6 0 0 1 -5.858-6.139l5.161-219.789a6 6 0 1 1 12 .281l-5.161 219.787a6 6 0 0 1 -5.999 5.86z"></path><path fill="#c61e1e" d="m128.051 419.328a6 6 0 0 1 -6-5.86l-5.161-219.787a6 6 0 1 1 12-.281l5.161 219.787a6 6 0 0 1 -5.858 6.139z"></path></svg>