<svg viewBox="0 0 682.7 682.7" xmlns:xlink="http://www.w3.org/1999/xlink" version="1.1" xmlns="http://www.w3.org/2000/svg" id="svg2052">
  
  <defs>
    <style>
      .st0 {
        fill: none;
      }

      .st1 {
        fill: #3da569;
      }

      .st2 {
        fill: #fff24d;
      }

      .st3 {
        fill: #ffd150;
      }

      .st4 {
        fill: #4eb77d;
      }

      .st5 {
        clip-path: url(#clippath);
      }
    </style>
    <clipPath id="clippath">
      <rect height="682.7" width="682.7" y="0" class="st0"></rect>
    </clipPath>
  </defs>
  <g id="g2058">
    <g id="g2060">
      <g class="st5">
        <g id="g2062">
          <g id="g2072">
            <path d="M623.2,205c-5.5,11-5.5,24.1,0,35.1,3.3,6.6,5.2,14.1,5.2,22.1s-1.9,15.4-5.2,22.1c-5.5,11-5.5,24.1,0,35.1,3.3,6.6,5.2,14.1,5.2,22.1s-1.9,15.4-5.2,22.1c-5.5,11-5.5,24.1,0,35.1,3.3,6.6,5.2,14.1,5.2,22s-1.9,15.4-5.2,22.1c-5.5,11-5.5,24.1,0,35.1,3.3,6.6,5.2,14.1,5.2,22.1s-1.9,15.6-5.3,22.3c-2.8,5.6-4.1,11.6-3.9,17.7-21.9,30.6-48.8,57.5-79.4,79.4-6.1-.1-12.2,1.1-17.7,3.9-6.7,3.4-14.3,5.3-22.3,5.3s-15.4-1.9-22-5.2c-11-5.5-24.1-5.5-35.1,0-6.6,3.3-14.1,5.2-22.1,5.2s-15.4-1.9-22-5.2c-11-5.5-24.1-5.5-35.1,0-6.6,3.3-14.1,5.2-22.1,5.2s-15.4-1.9-22-5.2c-11-5.5-24.1-5.5-35.1,0-6.6,3.3-14.1,5.2-22,5.2s-15.4-1.9-22-5.2c-11-5.5-24.1-5.5-35.1,0-6.6,3.3-14.1,5.2-22,5.2s-15.4-1.9-22-5.2c-5.7-2.8-11.9-4.2-18.1-4.1-5.9,0-11.7,1.5-17,4.1-6.6,3.3-14.1,5.2-22,5.2-13.7,0-26.1-5.5-35-14.5s-14.5-21.3-14.5-35,1.9-15.4,5.2-22c2.7-5.3,4-11.2,4.1-17,0-6.2-1.3-12.4-4.1-18.1-3.3-6.6-5.2-14.1-5.2-22s1.9-15.4,5.2-22c5.5-11,5.5-24.1,0-35.1-3.3-6.6-5.2-14.1-5.2-22.1s1.9-15.4,5.2-22c5.5-11,5.5-24.1,0-35.1-3.3-6.6-5.2-14.1-5.2-22s1.9-15.4,5.2-22.1c5.5-11,5.5-24.1,0-35.1-3.3-6.6-5.2-14.1-5.2-22s1.9-15.4,5.2-22c5.5-11,5.5-24.1,0-35.1-3.3-6.6-5.2-14.1-5.2-22s1.9-15.6,5.3-22.3c2.8-5.6,4.1-11.6,3.9-17.7-.1-6.1-1.6-12.1-4.3-17.7-3.8-7.8-5.5-16.8-4.7-26.2,2.2-23.5,21.2-42.4,44.6-44.5,9.4-.9,18.4.9,26.2,4.7,5.6,2.7,11.6,4.2,17.6,4.3,6.1.1,12.1-1.1,17.7-3.9,6.7-3.4,14.3-5.3,22.3-5.3s15.4,1.9,22,5.2c11,5.5,24.1,5.5,35.1,0,6.6-3.3,14.1-5.2,22-5.2s15.4,1.9,22.1,5.2c11,5.5,24.1,5.5,35.1,0,6.6-3.3,14.1-5.2,22-5.2s15.4,1.9,22.1,5.2c11,5.5,24.1,5.5,35.1,0,6.6-3.3,14.1-5.2,22-5.2s15.4,1.9,22.1,5.2c11,5.5,24.1,5.5,35.1,0,6.6-3.3,14.1-5.2,22-5.2s15.4,1.9,22.1,5.2c5.7,2.8,11.8,4.2,18,4.1,5.9,0,11.7-1.4,17.1-4.1,6.6-3.3,14.1-5.2,22-5.2,13.7,0,26.1,5.5,35,14.5,9,8.9,14.5,21.3,14.5,35s-1.9,15.4-5.2,22.1c-2.7,5.4-4,11.2-4.1,17.1,0,6.2,1.3,12.4,4.1,18,3.3,6.6,5.2,14.1,5.2,22.1s-1.9,15.4-5.2,22.1" class="st4" id="path2074"></path>
          </g>
          <g id="g2076">
            <path d="M86,99c-.9,9.5.9,18.4,4.7,26.2,5.4,11.2,6,24.3.4,35.4-3.4,6.7-5.3,14.2-5.3,22.3s1.9,15.4,5.2,22c5.5,11,5.5,24.1,0,35.1-3.3,6.6-5.2,14.1-5.2,22s1.9,15.4,5.2,22c5.5,11,5.5,24.1,0,35.1-3.3,6.7-5.2,14.1-5.2,22s1.9,15.4,5.2,22c5.5,11,5.5,24.1,0,35.1-3.3,6.6-5.2,14.1-5.2,22s1.9,15.4,5.2,22c5.5,11,5.5,24.1,0,35.1-3.3,6.6-5.2,14.1-5.2,22s1.9,15.4,5.2,22c5.5,11,5.5,24.1,0,35.1-3.3,6.6-5.2,14.1-5.2,22,0,13.7,5.5,26.1,14.5,35,5.3,5.3,11.9,9.5,19.3,11.9-4.9,1.7-10.2,2.6-15.7,2.6-13.7,0-26.1-5.5-35-14.5-9-9-14.5-21.3-14.5-35s1.9-15.4,5.2-22c5.5-11,5.5-24.1,0-35.1-3.3-6.6-5.2-14.1-5.2-22s1.9-15.4,5.2-22c5.5-11,5.5-24.1,0-35.1-3.3-6.6-5.2-14.1-5.2-22s1.9-15.4,5.2-22c5.5-11,5.5-24.1,0-35.1-3.3-6.6-5.2-14.1-5.2-22s1.9-15.4,5.2-22c5.5-11,5.5-24.1,0-35.1-3.3-6.6-5.2-14.1-5.2-22s1.9-15.4,5.2-22c5.5-11,5.5-24.1,0-35.1-3.3-6.6-5.2-14.1-5.2-22s1.9-15.6,5.3-22.3c5.6-11.1,5-24.2-.4-35.4-3.8-7.8-5.5-16.8-4.7-26.2,2.2-23.5,21.2-42.4,44.6-44.5,7.2-.7,14.1.2,20.4,2.3-18.1,6.1-31.7,22.5-33.6,42.2" class="st1" id="path2078"></path>
          </g>
          <g id="g2080">
            <path d="M124.1,571.9c-3.4,0-6.8-1.3-9.4-3.9-5.2-5.2-5.2-13.6,0-18.9L549.1,114.7c5.2-5.2,13.6-5.2,18.9,0,5.2,5.2,5.2,13.7,0,18.9l-434.4,434.4c-2.6,2.6-6,3.9-9.4,3.9" class="st1" id="path2082"></path>
          </g>
          <g id="g2084">
            <path d="M124.1,432.4c-3.4,0-6.8-1.3-9.4-3.9-5.2-5.2-5.2-13.6,0-18.9L409.6,114.7c5.2-5.2,13.6-5.2,18.9,0,5.2,5.2,5.2,13.7,0,18.9L133.6,428.5c-2.6,2.6-6,3.9-9.4,3.9" class="st1" id="path2086"></path>
          </g>
          <g id="g2088">
            <path d="M124.1,293c-3.4,0-6.8-1.3-9.4-3.9-5.2-5.2-5.2-13.6,0-18.9l155.5-155.5c5.2-5.2,13.7-5.2,18.9,0,5.2,5.2,5.2,13.6,0,18.9l-155.5,155.5c-2.6,2.6-6,3.9-9.4,3.9" class="st1" id="path2090"></path>
          </g>
          <g id="g2092">
            <path d="M124.1,153.5c-3.4,0-6.8-1.3-9.4-3.9-5.2-5.2-5.2-13.6,0-18.9l16-16c5.2-5.2,13.7-5.2,18.9,0s5.2,13.6,0,18.9l-16,16c-2.6,2.6-6,3.9-9.4,3.9" class="st1" id="path2094"></path>
          </g>
          <g id="g2096">
            <path d="M542.5,571.8c-3.4,0-6.8-1.3-9.4-3.9-5.2-5.2-5.2-13.6,0-18.9l16-16c5.2-5.2,13.6-5.2,18.9,0,5.2,5.2,5.2,13.6,0,18.9l-16,16c-2.6,2.6-6,3.9-9.4,3.9" class="st1" id="path2098"></path>
          </g>
          <g id="g2100">
            <path d="M403,571.8c-3.4,0-6.8-1.3-9.4-3.9-5.2-5.2-5.2-13.6,0-18.9l155.5-155.5c5.2-5.2,13.6-5.2,18.9,0,5.2,5.2,5.2,13.6,0,18.9l-155.5,155.5c-2.6,2.6-6,3.9-9.4,3.9" class="st1" id="path2102"></path>
          </g>
          <g id="g2104">
            <path d="M263.6,571.8c-3.4,0-6.8-1.3-9.4-3.9-5.2-5.2-5.2-13.6,0-18.9l294.9-294.9c5.2-5.2,13.6-5.2,18.9,0,5.2,5.2,5.2,13.6,0,18.9l-294.9,294.9c-2.6,2.6-6,3.9-9.4,3.9" class="st1" id="path2106"></path>
          </g>
          <g id="g2108">
            <path d="M291.6,203.7l22.1,82.6c4.3,16.2-10.5,31.1-26.7,26.7l-82.6-22.1c-16.2-4.4-21.7-24.6-9.8-36.5l11.2-11.2-49-49c-10.6-10.6-10.5-27.8.2-38.2h0c10.5-10.4,27.5-10.3,37.9.2l49,49,11.2-11.2c11.9-11.9,32.2-6.4,36.5,9.8" class="st2" id="path2110"></path>
          </g>
          <g id="g2112">
            <path d="M308.7,291.4c2,.5,3.9.8,5.8.8,0,13.7-13.2,24.7-27.5,20.9l-82.6-22.1c-16.2-4.4-21.7-24.6-9.8-36.5l11.2-11.2-49-49c-10.6-10.6-10.5-27.7.2-38.2,4-3.9,8.9-6.4,14-7.3-1.5,8.4.9,17.4,7.4,23.9l49,49-11.2,11.2c-11.9,11.9-6.4,32.2,9.8,36.5l82.6,22.1Z" class="st3" id="path2114"></path>
          </g>
          <g id="g2116">
            <path d="M478.2,391.8l-82.6-22.1c-16.2-4.3-31.1,10.5-26.7,26.7l22.1,82.6c4.4,16.2,24.6,21.7,36.5,9.8l11.2-11.2,49,49c10.6,10.6,27.8,10.5,38.2-.2h0c10.4-10.5,10.3-27.5-.2-37.9l-49-49,11.2-11.2c11.9-11.9,6.4-32.2-9.8-36.5" class="st2" id="path2118"></path>
          </g>
          <g id="g2120">
            <path d="M390.6,374.7c-.5-2-.8-3.9-.8-5.8-13.7,0-24.7,13.2-20.9,27.5l22.1,82.6c4.4,16.2,24.6,21.7,36.5,9.8l11.2-11.2,49,49c10.6,10.6,27.7,10.5,38.2-.2,3.9-4,6.4-8.9,7.3-14-8.4,1.5-17.4-.9-23.9-7.4l-49-49-11.2,11.2c-11.9,11.9-32.2,6.4-36.5-9.8l-22.1-82.6Z" class="st3" id="path2122"></path>
          </g>
          <g id="g2124">
            <path d="M478.9,291.6l-82.6,22.1c-16.2,4.3-31.1-10.5-26.7-26.7l22.1-82.6c4.4-16.2,24.6-21.7,36.5-9.8l11.2,11.2,49-49c10.6-10.6,27.8-10.5,38.2.2h0c10.4,10.5,10.3,27.5-.2,37.9l-49,49,11.2,11.2c11.9,11.9,6.4,32.2-9.8,36.5" class="st2" id="path2126"></path>
          </g>
          <g id="g2128">
            <path d="M391.3,308.7c-.5,2-.8,3.9-.8,5.8-13.7,0-24.7-13.2-20.9-27.5l22.1-82.6c4.4-16.2,24.6-21.7,36.5-9.8l11.2,11.2,49-49c10.6-10.6,27.7-10.5,38.2.2,3.9,4,6.4,8.9,7.3,14-8.4-1.5-17.4.9-23.9,7.4l-49,49-11.2-11.2c-11.9-11.9-32.2-6.4-36.5,9.8l-22.1,82.6Z" class="st3" id="path2130"></path>
          </g>
          <g id="g2132">
            <path d="M290.9,478.2l22.1-82.6c4.3-16.2-10.5-31.1-26.7-26.7l-82.6,22.1c-16.2,4.4-21.7,24.6-9.8,36.5l11.2,11.2-49,49c-10.6,10.6-10.5,27.8.2,38.2h0c10.5,10.4,27.5,10.3,37.9-.2l49-49,11.2,11.2c11.9,11.9,32.2,6.4,36.5-9.8" class="st2" id="path2134"></path>
          </g>
          <g id="g2136">
            <path d="M307.9,390.6c2-.5,3.9-.8,5.8-.8,0-13.7-13.2-24.7-27.5-20.9l-82.6,22.1c-16.2,4.4-21.7,24.6-9.8,36.5l11.2,11.2-49,49c-10.6,10.6-10.5,27.7.2,38.2,4,3.9,8.9,6.4,14,7.3-1.5-8.4.9-17.4,7.4-23.9l49-49-11.2-11.2c-11.9-11.9-6.4-32.2,9.8-36.5l82.6-22.1Z" class="st3" id="path2138"></path>
          </g>
        </g>
      </g>
    </g>
  </g>
</svg>