<svg xmlns="http://www.w3.org/2000/svg" viewBox="0 0 3873 3873"><g id="Layer_1"><path fill-rule="evenodd" fill="#c7e8fc" d="m2561.4 641.1c13.6-6.1 24.8-17.2 30.9-31.6 18.6-43.7 32.8-85.9 43.5-129.2.3-1.1.6-2.3.8-3.4 35.4-152.1-80.8-295.4-234.7-295.4-110.5 0-206.7 75.3-233.9 183.1-15.5 61.7-48.2 113-80.3 188.4-7.6 17.8-15.1 37-22.4 58-10.9 31.3 5.5 65.6 36.8 76.8.2 0 .3.1.5.2 1.8.5 3.5 1.1 5.3 1.6 29.9 7.5 61.2-8.9 71.5-38.8 8.2-23.5 16.9-44.8 25.8-64.8 30.1-67.7 61.9-119.9 80-191.8 13.7-54 61.6-91.8 116.7-91.8 77.3 0 135.5 72.2 116.5 148.9-7.6 30.5-16.9 59.6-28.8 90-2.5 6.4-5.2 12.9-7.9 19.5-18.1 39.6 10.7 85.6 55 85.6 8.7 0 17.1-1.9 24.7-5.3zm-469.5 289c-175.7-37.3-231.4-112.4-380.7-137 20.4-76.2 58.7-124.8 94.6-222.9 76.4 18.6 133.2 46.1 184.4 70.8 39.6 19.1 74 35 111.8 46.8.2.1.3.1.5.2 1.8.6 3.5 1.1 5.3 1.6 45.6 13.5 96.8 21.1 168.1 21.1 141.4 0 205-30.6 285.4-69.5 97.4-45.7 185.6-84.3 330.9-92.1-27.5 63.5-53.9 140.9-66.1 246.8-141.2 28.1-212.7 107.7-389.4 139.1-.4 0-.9.1-1.3.1-3.1.3-6.1.9-9 1.6-43.2 7.1-92.5 11.3-150.4 11.3-67.2 0-127.5-5.9-184.1-17.9z" clip-rule="evenodd"></path><g><g><g><path fill-rule="evenodd" fill="#25a1e8" d="m2276 710.6c-134.3 0-197-26.8-285.7-69.6-61.9-29.9-132-63.7-235.1-81.2-33-5.6-55-36.8-49.5-69.7 5.6-33 36.8-55 69.7-49.5 183.5 31.2 272.5 104.8 364.4 132.3 38.7 11.6 80.7 16.8 136.2 16.8 121.8 0 163-25.1 235.4-58.6 91.4-44.2 216.7-104.3 439.5-104.3 12.6 0 25.5.2 38.3.6 33.4 1 59.6 28.9 58.5 62.3-1 33.4-28.9 59.6-62.3 58.5-203.9-6.3-307.4 38.2-424 92.9-80.4 39-144 69.5-285.4 69.5zm234.5-179c-.1 0-.2.1-.3.2.1-.1.2-.1.3-.2z" clip-rule="evenodd"></path></g><g><path fill-rule="evenodd" fill="#25a1e8" d="m2066.6 1048.4c-101.1-21.5-173.8-56.5-232.2-84.7-65.5-31.7-108.8-52.5-197.8-56.8-33.4-1.6-59-30-57.4-63.3 1.6-33.4 30-59 63.3-57.4 204.7 9.9 249.1 101.5 449.4 144.1 56.6 12 116.9 17.9 184.2 17.9 332 0 382.4-138.3 600.2-159.5 33.3-3.2 62.8 21.1 66 54.2 3.3 33.3-21.1 62.8-54.2 66-71.2 7-110.6 26-170.3 54.7-65.3 31.6-146.6 70.7-265.7 91.2-115.8 19.8-262.1 19.8-385.5-6.4z" clip-rule="evenodd"></path></g><g><path fill-rule="evenodd" fill="#25a1e8" d="m3389 1042.1c-72-17.9-128.4-42.3-174-63.7-30.2-14.2-43.2-50.3-29-80.4 14.2-30.2 50.3-43.2 80.4-29 42.4 19.9 90 40.5 151.7 55.7 75.2 18.7 147.2-38.3 147.2-115.2 0-54.4-37.3-101.8-90.7-115.3-58.5-14.8-102.9-38.2-157-64-30.2-14.4-42.9-50.4-28.5-80.6s50.5-42.9 80.6-28.5c52.3 25 88.7 44.4 134.6 55.9 107.2 27.1 182 122.7 182 232.6-.1 154.1-144.7 270.3-297.3 232.5z" clip-rule="evenodd"></path></g><g><path fill-rule="evenodd" fill="#25a1e8" d="m926.2 1068.9c-317.7 0-427.4-118.4-553.4-150.2-194.2-49-246.8-298.6-90.1-421.2 58.4-45.8 133.3-61.6 205.2-43.9 30.4 7.6 59.4 16.6 88.9 27.5 149.4 55.3 181.4 108.6 349.3 108.6 113.9 0 158.8-21.7 233.3-57.6l.2-.1c52.8-25.5 112.7-54.3 194.3-75.7 38.4-10.1 75.8 19 75.8 58.4 0 28.6-19.9 52.5-46.6 58.8-69.6 18.4-121.2 43.3-171 67.3-.2.1-.3.1-.2.1-82.3 39.8-152.2 73.9-311.3 69.2-211.3-6-252.5-92.3-441.8-139.4-74.8-18.6-147.2 38.2-147.2 115.2 0 54.4 37.3 101.8 90.7 115.3 152.9 38.8 234.4 146.7 523.8 146.7 158.2 0 256.5-33.8 324.6-63.2 30.7-13.3 66.2.8 79.5 31.5s-.8 66.2-31.5 79.5c-78.5 34-191.9 73.2-372.5 73.2z" clip-rule="evenodd"></path></g><g><path fill-rule="evenodd" fill="#25a1e8" d="m3389 1838.4c-176-43.7-234-113.6-355-130.9-24.5-3.5-51.7-5.2-83.2-5.2-163.9 0-192.6 47.9-336.9 103.9-39.5 15.3-82.3-13.7-82.3-56.3 0-26.3 16.7-48.6 40.1-56.9 134.4-52.5 184.8-111.6 379.1-111.6 234.8 0 270.3 90.8 467.2 139.7 75.5 18.7 147.2-38.6 147.2-115.2 0-54.4-37.3-101.8-90.7-115.3-151.2-38.2-231.8-146-521.7-146.6h-2c-166.2 0-267.3 36.3-351.8 75.5-30.3 14.1-66.2.9-80.3-29.4s-.9-66.2 29.4-80.3c92.4-42.9 212.5-86.7 402.7-86.7h2.1c315.7.6 426 118.6 551.2 150.2 107.2 27.1 182 122.7 182 232.6.1 154.1-144.5 270.3-297.1 232.5z" clip-rule="evenodd"></path></g><g><path fill-rule="evenodd" fill="#25a1e8" d="m916.9 1806.4c-1.5-33.4 24.3-61.6 57.6-63.1 234.2-10.6 322.3-96.1 442.8-136 54.1-17.9 110.8-25.9 183.7-25.9 136.9 0 199.9 28.3 285.8 69.6 79 38.2 168.4 81.3 322.4 91.2 33.4 2.1 58.6 30.9 56.4 64.2-2.1 33.4-30.9 58.6-64.2 56.4-167.7-10.8-268-55.1-368-103.3-72.9-35.2-118.4-57.2-232.5-57.2-112.9 0-158.1 21.4-233.2 57.6-88.2 42.6-197.8 95.5-387.8 104.1-32.7 1.6-61.4-24-63-57.6z" clip-rule="evenodd"></path></g><g><path fill-rule="evenodd" fill="#25a1e8" d="m2216.6 1504.8c-200-14.8-250.4-117.5-477-151.3-105-15.7-245.3-14.2-362 17.8-163.4 44.7-216.2 119.2-387.1 133.1-33.3 2.7-62.4-22.1-65.1-55.3-2.7-33.3 22.1-62.4 55.3-65.1 140.7-11.4 189.6-81.2 364.9-129.2 78-21.3 161.6-31.7 255.5-31.7 203.6 0 321.5 47.3 441.6 105.3 62.5 30.2 103.7 50.1 182.7 55.8 33.3 2.5 58.3 31.5 55.8 64.7-2.3 33.3-31.1 58.4-64.6 55.9z" clip-rule="evenodd"></path></g><g><path fill-rule="evenodd" fill="#25a1e8" d="m596.8 1809.4c-98.1-37-152.7-76.5-223.8-94.5-107.2-27.1-182-122.7-182-232.6 0-155.8 146.3-269.9 297.2-232.6 36 8.9 70.7 20.1 106.2 34.2 31.1 12.3 46.3 47.5 34 78.4-12.3 31.1-47.5 46.3-78.4 34-30.5-12.1-60.1-21.6-90.8-29.2-74.9-18.6-147.2 38.2-147.2 115.2 0 54.4 37.3 101.8 90.7 115.3 87 22 144.4 63.6 236.9 98.6 31.3 11.8 47.1 46.7 35.3 77.9-12.1 31.5-47 47.1-78.1 35.3z" clip-rule="evenodd"></path></g><g><path fill-rule="evenodd" fill="#25a1e8" d="m3389 2634.6c-35.9-8.9-70.6-20-106.2-34.1-31.1-12.3-46.3-47.4-34-78.4 12.3-31.1 47.4-46.3 78.4-34 30.6 12.1 60.2 21.6 90.8 29.2 9.6 2.4 19.3 3.6 28.9 3.6 65.2 0 118.3-53.2 118.3-118.8 0-54.4-37.3-101.8-90.7-115.3-87.1-22-144.3-63.6-236.9-98.6-31.3-11.8-47.1-46.7-35.3-77.9 11.8-31.3 46.7-47.1 77.9-35.3 96.8 36.5 153.2 76.6 223.9 94.5 107.2 27.1 182 122.7 182 232.6.1 154.2-144.5 270.4-297.1 232.5z" clip-rule="evenodd"></path></g><g><path fill-rule="evenodd" fill="#25a1e8" d="m2276 2661.5c-203.6 0-321.3-47.3-441.6-105.3-62.3-30.1-103.5-49.9-182.3-55.8-31.6-2.1-56.4-28.3-56.4-60.3 0-35.2 29.9-62.8 64.9-60.2 102.1 7.6 159.7 35.4 226.5 67.6 104.8 50.7 204.8 93.2 389 93.2 82.9 0 156.1-9 223.6-27.4 163.6-44.7 216.2-119.2 387-133.1 33.3-2.7 62.4 22.1 65.1 55.3 2.7 33.3-22.1 62.4-55.3 65.1-141.2 11.5-188.8 81-364.9 129.2-78.2 21.3-161.8 31.7-255.6 31.7z" clip-rule="evenodd"></path></g><g><path fill-rule="evenodd" fill="#25a1e8" d="m2276 2303.3c-88.2 0-151.8-11.4-219.4-39.2-99.1-40.8-190.2-108.9-388.9-121.7-33.4-2.1-58.6-30.9-56.4-64.2 2.1-33.4 30.9-58.5 64.2-56.4 224.8 14.4 334.2 92.2 427.2 130.5 43.9 18.1 90.1 30.1 173.3 30.1 112.7 0 158-21.3 232.9-57.4l.4-.2c88.1-42.6 197.7-95.4 387.6-104.1 33.4-1.5 61.6 24.3 63.1 57.6 1.5 33.4-24.3 61.6-57.6 63.1-156.6 7.1-246 46.5-341.1 92.4-33.7 16.3-65.4 31.6-101.8 43.6-54 17.9-110.7 25.9-183.5 25.9z" clip-rule="evenodd"></path></g><g><path fill-rule="evenodd" fill="#25a1e8" d="m926.2 2661.5h-2.1c-315-.5-427-118.9-551.2-150.2-107.2-27.1-182-122.7-182-232.6 0-155.5 146-270 297.2-232.6 175.5 43.5 234.2 113.6 355 130.9 24.6 3.5 51.7 5.2 83.2 5.2 163.9 0 192-47.7 336.8-103.9 31.2-12.1 66.1 3.3 78.2 34.5s-3.3 66.1-34.5 78.2c-135.6 52.6-185.6 112.1-380.6 112.1-236.1 0-268.6-90.4-467.2-139.7-35.7-8.8-72.7-.9-101.6 21.7-77.4 60.5-51.9 184.2 45.2 208.8 150.7 38 232 146 521.7 146.6h2c166.2 0 267.3-36.3 351.8-75.5 30.3-14.1 66.2-.9 80.3 29.4s.9 66.2-29.4 80.3c-92.5 43-212.6 86.8-402.8 86.8z" clip-rule="evenodd"></path></g><g><path fill-rule="evenodd" fill="#25a1e8" d="m3389 3431c-30.3-7.5-60.6-16.9-88.9-27.5-152.8-56.7-180.4-108.6-349.3-108.6-113.9 0-158.8 21.7-233.3 57.6-50.3 24.3-112.8 54.4-194.6 75.8-38.4 10-75.7-19-75.7-58.4 0-28.6 19.9-52.5 46.6-58.8 196-51.7 230.3-144.1 482.5-136.7 210 6 255.2 93 441.8 139.4 75.5 18.7 147.2-38.6 147.2-115.2 0-54.4-37.3-101.8-90.7-115.3-150.7-38.1-233.5-146.6-523.7-146.6-158.3 0-256.6 33.9-324.6 63.2-30.7 13.3-66.2-.8-79.5-31.4-13.3-30.7.8-66.2 31.4-79.5 78.6-34.1 192.1-73.2 372.7-73.2 316.3 0 428.2 118.6 553.3 150.2 107.2 27.1 182 122.7 182 232.6 0 154-144.6 270.2-297.2 232.4z" clip-rule="evenodd"></path></g><g><path fill-rule="evenodd" fill="#25a1e8" d="m926.2 3457.8c-12.9 0-25.9-.2-38.5-.6-33.4-1.1-59.5-29.1-58.4-62.4 1.1-33.4 29-59.5 62.4-58.4 11.3.4 22.9.6 34.5.6 195.7 0 302.2-51.3 387.7-92.6l.5-.2c99.1-49.6 165.7-70 286.7-70 137.6 0 201.4 28.9 285.6 69.5 77 37.2 140.6 65.2 235.2 81.2 33 5.6 55 36.8 49.5 69.7-5.6 33-36.8 55-69.7 49.5-183.3-31.1-272.7-104.9-364.3-132.4-38.7-11.6-80.7-16.8-136.2-16.8-116.5 0-158.8 22.5-234.6 58.2-91.6 44.2-217 104.7-440.4 104.7z" clip-rule="evenodd"></path></g><g><path fill-rule="evenodd" fill="#25a1e8" d="m2234.6 3098.6c-113.6-5.5-174.2-34.8-244.5-68.6-55.4-26.8-118.1-56.9-204.9-75.4-56.6-12-116.9-17.9-184.2-17.9-331.9 0-382.4 138.3-600.3 159.5-33.3 3.3-62.8-21.1-66-54.2-3.3-33.3 21.1-62.8 54.2-66 71.3-7 110.7-26 170.4-54.8 65.3-31.6 146.6-70.7 265.6-91.1 114.9-19.8 261.4-20 385.3 6.4 101.1 21.5 173.8 56.5 232.2 84.7 65.6 31.7 108.9 52.5 197.8 56.8 33.4 1.6 59 30 57.4 63.3-1.2 33-29.4 58.9-63 57.3z" clip-rule="evenodd"></path></g><g><path fill-rule="evenodd" fill="#25a1e8" d="m507.4 3363.5c-52.4-25.1-88.7-44.3-134.6-55.8-107.2-27.1-182-122.7-182-232.6 0-155.5 146-270 297.2-232.6 72 17.9 128.4 42.3 174 63.7 30.2 14.2 43.2 50.3 29 80.4-14.2 30.2-50.3 43.2-80.4 29-42.4-19.9-90-40.5-151.7-55.7-74.8-18.6-147.2 38.2-147.2 115.2 0 54.4 37.3 101.8 90.7 115.3 58.4 14.8 102.6 38 157 64 30.2 14.4 42.9 50.5 28.5 80.6-14.2 30.1-50.3 42.8-80.5 28.5z" clip-rule="evenodd"></path></g><g><path fill-rule="evenodd" fill="#25a1e8" d="m672.6 3703.1c-156.4 0-271.6-146.8-233.9-298.9 21.9-88.2 49.8-144 79-206.4 36.3-75.1 58.1-120.4 58.1-235.4v-1.6c-.2-113.8-22-158.9-58.1-233.8-27-55.7-60.4-125.2-82.2-219.8-8.7-37.9 20.1-74 58.9-74 29.2 0 53.5 20.7 59.2 48.2 48.6 209 142.8 237.8 143.2 479.2v1.7c0 237.7-91.7 272.9-140.7 470.7-18.8 75.6 38.5 148.9 116.5 148.9 55 0 103-37.8 116.7-91.8 38.5-152.7 147.7-233.8 147.7-527.9 0-162.3-34.4-261.4-68-336.9-13.6-30.5.1-66.2 30.6-79.8s66.2.1 79.8 30.6c36.6 82 78.4 200 78.4 386 0 323.9-118.7 428-151.4 557.5-27.1 108.2-123.3 183.5-233.8 183.5z" clip-rule="evenodd"></path></g><g><path fill-rule="evenodd" fill="#25a1e8" d="m476 2167.8c-32.9-5.9-54.6-37.4-48.8-70.2 32.7-181.1 105.9-268.2 132.8-361.4 10.9-37.6 15.9-80.1 15.9-134 0-108.3-18.4-154.3-58.3-235.7-47.3-97.9-112.3-234.1-105.4-477.2.9-33.4 28.8-59.7 62.1-58.7 33.4.9 59.6 28.8 58.7 62.1-5.1 182.3 28.2 286.6 93.6 421.7 39.2 81.1 70.1 145.3 70.1 287.9 0 255.7-108.1 281.7-150.6 516.9-5.8 32.6-37.2 54.6-70.1 48.6z" clip-rule="evenodd"></path></g><g><path fill-rule="evenodd" fill="#25a1e8" d="m830.9 2297.3c-33.4-1.9-58.7-30.6-56.8-63.8 11.5-197.8 101.7-246.6 144.2-442.7 23.4-107.8 23.6-237.5 7.6-337-17.3-107.8-52.1-180-82.9-243.8l-.1-.3c-29.3-60.7-54.6-113.2-65-197.5-4.1-33.2 19.5-63.3 52.6-67.4 33.2-4.1 63.3 19.5 67.4 52.6 8 64.5 27.3 104.5 53.9 159.7.1.2.2.4.1.3 32.7 67.6 73.3 151.9 93.4 277.1 18.4 114.5 17.8 259.1-8.8 381.7-21.7 100.2-56.6 172.5-84.7 230.7-31.3 64.9-51.9 107.7-56.9 193.4-2 33.3-30.4 58.9-64 57z" clip-rule="evenodd"></path></g><g><path fill-rule="evenodd" fill="#25a1e8" d="m876.3 704.3c-30.1-14.5-42.8-50.7-28.3-80.7 24.8-51.4 48.4-103.3 65.5-172.3 18.9-76.3-38.9-148.9-116.5-148.9-55 0-103 37.8-116.7 91.8-16.2 64-42.8 111.6-69.6 169.1-14.2 30.3-50.2 43.3-80.3 29.2-30.3-14.2-43.4-50.2-29.2-80.3 27.1-57.9 49.2-97 61.9-147.6 27.2-107.7 123.3-183.1 233.9-183.1 155 0 271.8 145.5 233.9 298.8-19.9 80.2-47.5 140.7-73.9 195.7-14.5 30.1-50.6 42.8-80.7 28.3z" clip-rule="evenodd"></path></g><g><path fill-rule="evenodd" fill="#25a1e8" d="m1307 1339c-60.1-127-92.7-246.3-92.7-416.9 0-323.3 118.6-427.9 151.4-557.5 27.2-107.8 123.4-183.1 233.9-183.1 132.9 0 241.1 107.9 241.1 240.6 0 34.5-7.1 61.4-17.3 95.5-56.1 188.6-127 214.1-127 404.5 0 170.2 51.9 197.9 109 350.7 11.7 31.3-4.2 66.1-35.5 77.8s-66.1-4.2-77.8-35.5c-53.1-142.4-116.6-191.3-116.6-392.9 0-223.4 79.9-264.2 132.1-439.1 9.7-32.4 12.3-45.5 12.3-60.9 0-65.9-53.8-119.7-120.2-119.7-55 0-103 37.8-116.7 91.8-38.9 153.8-147.7 232.6-147.7 527.9 0 152.1 28.1 253.2 81 365.2 14.3 30.2 1.4 66.2-28.8 80.5-30.3 14.2-66.3 1.3-80.5-28.9z" clip-rule="evenodd"></path></g><g><path fill-rule="evenodd" fill="#25a1e8" d="m1375.3 2895.8c-7.3-69.8-26.3-109.1-54.9-168.5-24-49.6-53.7-111.3-75.2-191.6-20.7-77.4-30.8-160.3-30.8-253.3 0-205 47.5-323.6 106.1-444.9 29.7-61.5 49.4-102.2 55.8-178 2.9-33.3 32.1-57.9 65.4-55s57.9 32.2 55 65.4c-8.4 98-35.8 154.6-67.4 220.3-48.6 100.5-94 202.7-94 392.2 0 333.3 137.8 385.4 160.3 600.8 3.5 33.2-20.6 62.9-53.8 66.4-33.4 3.4-63.1-20.8-66.5-53.8z" clip-rule="evenodd"></path></g><g><path fill-rule="evenodd" fill="#25a1e8" d="m1737.5 2899.1c-13.9-230.7-100.6-316-139.3-441.3-15.7-51.1-23-106.8-23-175.4 0-135.5 27.3-199.2 70.1-287.9 38.2-79 81.3-168.5 91.7-322.1 2.2-33.3 31.1-58.5 64.4-56.2 33.3 2.2 58.5 31.1 56.2 64.4-15.1 223-92.3 333.2-130.4 424.8-18.8 45-31.2 92.3-31.2 177 0 48.3 3.6 94.1 17.7 140 32.9 107 129 213.6 144.4 469.4 2 33.4-23.4 61.9-56.7 64-34 1.8-61.9-24.1-63.9-56.7z" clip-rule="evenodd"></path></g><g><path fill-rule="evenodd" fill="#25a1e8" d="m1475.1 3703.1c-156.4 0-271.5-146.8-233.9-298.9 10.7-43.3 24.9-85.5 43.5-129.2 13.1-30.8 48.6-45.1 79.2-32.1 30.8 13 45.1 48.6 32.1 79.2-16.2 38.3-28.1 73.5-37.4 111-18.8 75.7 38.6 148.9 116.5 148.9 55 0 103-37.8 116.7-91.8 23.5-93.1 69.8-153.2 105.8-256.5 11-31.6 45.5-48.3 76.9-37.3 31.6 11 48.3 45.5 37.3 76.9-18.3 52.5-39.1 95.7-57.4 133.7-19.8 41-35.4 73.2-45.4 112.7-27.2 108.1-123.3 183.4-233.9 183.4z" clip-rule="evenodd"></path></g><g><path fill-rule="evenodd" fill="#25a1e8" d="m2102.6 687.9c-31.6-11-48.3-45.5-37.3-76.9 38.2-109.7 83.5-170.1 102.7-246.4 27.2-107.8 123.4-183.1 233.9-183.1 155 0 271.8 145.5 233.9 298.8-10.7 43.3-24.9 85.5-43.5 129.2-9.5 22.4-31.4 36.9-55.6 36.9-44.4 0-73.1-46.1-55-85.6 15.9-37.7 27.6-72.5 36.8-109.5 19-76.6-39.2-148.9-116.5-148.9-55 0-103 37.8-116.7 91.8-23.5 93-69.8 153.2-105.8 256.5-11 31.7-45.5 48.2-76.9 37.2z" clip-rule="evenodd"></path></g><g><path fill-rule="evenodd" fill="#25a1e8" d="m2075.5 2268.5c-33.3-2.2-58.5-31.1-56.2-64.3 14.9-221.5 91.3-331.1 130.4-424.8 18.8-45.1 31.3-92.3 31.3-177 0-110.8-19.7-155.7-58.1-235.3-41.5-85.9-93-192.7-104-374.1-2-33.4 23.4-61.9 56.7-64 33.3-2 61.9 23.4 64 56.7 14 230.9 101 316.6 139.3 441.3 15.7 51.1 23 106.7 23 175.4 0 141.7-29.4 200.1-70.1 287.8-38.2 79.1-81.4 168.6-91.7 322.2-2.4 33-31 58.3-64.6 56.1z" clip-rule="evenodd"></path></g><g><path fill-rule="evenodd" fill="#25a1e8" d="m2440.7 2280.5c-1.7 0-3.5-.1-5.2-.2-33.3-2.9-57.9-32.2-55-65.4 8.4-98 35.8-154.6 67.4-220.3 47.4-98 94-201.4 94-392.3 0-333.7-137.8-384.7-160.3-600.7-3.5-33.2 20.7-62.9 53.8-66.4 33.2-3.5 62.9 20.7 66.4 53.8 13.9 132.6 83.6 186 130.2 360.1 35.4 132.3 37.9 288.2 19.9 409.6-17.6 120.8-54.2 203.6-95.2 288.3-29.8 61.6-49.4 102.3-55.8 178.1-2.7 31.5-29.1 55.4-60.2 55.4z" clip-rule="evenodd"></path></g><g><path fill-rule="evenodd" fill="#25a1e8" d="m2087.8 3610.6c-46-58.7-62-134-44.1-206.4 20.1-80.9 46.6-139.1 78.8-205.9 37.6-78.1 58.3-122 58.3-235.8 0-170.3-51.6-197.2-108.9-350.6-11.7-31.3 4.2-66.1 35.5-77.8s66.1 4.2 77.8 35.5c14.6 39.2 30.8 72.6 46.5 105 39.2 81.1 70.1 145.3 70.1 287.9 0 235.8-91.9 274.3-140.8 470.8-8.9 36.1-.9 73.5 22 102.8 61.2 78.3 186.4 52.5 211.2-45.7 39-154.5 147.7-231.7 147.7-527.9 0-6.2 0-11.8-.1-17-2.6-168.9-43.1-268.3-80.9-348.2-14.3-30.2-1.4-66.2 28.8-80.5s66.2-1.4 80.5 28.8c60.2 127.3 92.6 246.6 92.6 416.9 0 319.6-119.5 431.4-151.4 557.5-49.3 195.6-300.4 248-423.6 90.6z" clip-rule="evenodd"></path></g><g><path fill-rule="evenodd" fill="#25a1e8" d="m3323.8 1404.3c-47.9-207.7-143.1-239.9-143.5-480.5v-1.7c0-237.5 91.3-271.7 140.8-470.7 18.8-75.7-38.6-148.9-116.5-148.9-55 0-103 37.8-116.7 91.8-38.6 152.8-147.7 233.8-147.7 527.9 0 162.3 34.4 261.4 68 336.9 13.6 30.5-.1 66.2-30.6 79.8s-66.2-.1-79.8-30.6c-36.6-82-78.5-200-78.5-386.1 0-26.6.8-52.6 2.5-77.5 17.5-261.6 119.5-363.6 148.8-479.9 27.2-108 123.3-183.2 233.8-183.2 156.7 0 271.5 147.1 233.9 298.9-9.9 39.9-22.6 78.5-38.9 118.2-55.5 135.5-98.3 165.6-98.3 323.5v1.6c.2 113.8 22 158.9 58.1 233.7 27 55.9 60.5 125.4 82.3 219.8 7.5 32.6-12.8 65-45.4 72.5-32.4 7.4-64.8-12.9-72.3-45.5z" clip-rule="evenodd"></path></g><g><path fill-rule="evenodd" fill="#25a1e8" d="m2979.2 2887.1c-7.9-64.6-27.3-104.6-53.9-159.8-32.7-67.7-73.4-151.9-93.5-277.3-18.2-113.6-18-258.5 8.8-381.7 21.7-100.2 56.5-172.5 84.6-230.7 31.4-64.8 51.9-107.7 57-193.4 1.9-33.4 30.6-58.7 63.8-56.8 33.4 1.9 58.7 30.6 56.8 63.8-11.6 197.8-101.7 246.4-144.2 442.7-23.1 106.7-23.7 236.3-7.6 337 33.7 210.1 126.8 268.5 148.1 441.6 4.1 33.2-19.5 63.3-52.6 67.3-32.9 4-63.2-19.5-67.3-52.7z" clip-rule="evenodd"></path></g><g><path fill-rule="evenodd" fill="#25a1e8" d="m3402.8 3054c-33.4-.9-59.6-28.8-58.7-62.1 5.1-180.5-27.1-282.9-93.8-422.1-39.2-81-69.9-145.2-69.9-287.5 0-256.1 108-281.3 150.6-516.8 5.9-32.9 37.4-54.6 70.2-48.8 32.9 5.9 54.6 37.4 48.8 70.2-32.5 180-105.9 268.1-132.8 361.4-10.8 37.6-15.9 80.1-15.9 133.9 0 117.9 22.8 160.4 58.4 236.1 48.3 99.9 112 235.3 105.2 476.9-1 33.4-28.7 59.7-62.1 58.8zm-43.7-536.6c0 .1 0 .1 0 0z" clip-rule="evenodd"></path></g><g><path fill-rule="evenodd" fill="#25a1e8" d="m3080.1 3703.1c-156.4 0-271.5-146.8-233.9-298.9 19.9-80.1 47.4-140.6 73.9-195.7 14.5-30.1 50.7-42.8 80.7-28.3 30.1 14.5 42.8 50.6 28.3 80.7-24.8 51.5-48.4 103.3-65.5 172.3-18.8 75.7 38.7 148.9 116.5 148.9 55 0 103-37.8 116.7-91.8 16.3-64.4 43-111.9 69.6-169.1 9.9-21.3 31.3-35 54.8-35 33.4 0 60.4 27.1 60.4 60.4 0 13.7-2.7 21.4-22.3 60.4-19.8 40.9-35.4 73.1-45.4 112.7-27.1 108.1-123.3 183.4-233.8 183.4z" clip-rule="evenodd"></path></g></g></g><g fill-rule="evenodd" clip-rule="evenodd"><g fill="#c7e8fc"><path d="m865.2 587c18.3-40.2 35.2-82.9 48.3-135.7 18.9-76.3-38.9-148.9-116.5-148.9-55 0-103 37.8-116.7 91.8-10.6 41.9-25.6 76.8-42.3 112 85.2 38.2 130.4 71.3 227.2 80.8z"></path><path d="m925.5 1451.9c-17.4-106.7-52-178.5-82.6-241.9l-.1-.3c-23.3-48.3-44.1-91.4-56.9-149.5-109.5-14.3-187.5-44.1-251.8-73.3 7.2 126.3 38.5 215.3 90.6 323.4 1.3 2.3 2.5 4.7 3.5 7.2 38.4 79.6 68.6 143.9 68.6 284.7 0 66.7-7.4 117.8-19 161-.6 3.7-1.6 7.3-3 10.9-.1.3-.2.5-.3.8-30.2 101.9-84 161.6-116.9 291.5 98 33.3 154.7 73.6 224.8 96.4 26-142.5 99-201.6 135.9-372.1 23.2-107.1 23.6-235.7 7.9-335-.3-1.2-.5-2.5-.7-3.8z"></path><path d="m1233.2 2484.6c-12.6-62.7-18.8-129.4-18.8-202.2 0-17.4.3-34.2 1-50.5-79.4 38.5-144.2 71.3-289.1 71.3-36.3 0-67.7-2.1-95.7-5.9-3.3-.2-6.5-.7-9.6-1.4-142.1-21.8-194-87.2-346.5-128.4-2.3-.5-4.4-1-6.6-1.7-2.9-.8-5.9-1.5-8.8-2.2-35.7-8.8-72.7-.9-101.6 21.7-77.4 60.5-51.9 184.2 45.2 208.8 41.6 10.5 78 26.3 114.9 43.8 2 .8 3.9 1.7 5.8 2.7 94.1 44.8 193.8 98.7 395.6 100 3.6-.3 7.2-.3 10.8 0 135.9-.5 228.1-25.3 303.4-56z"></path><path d="m937 2962.2c0-138.1-24.9-230.5-53-301.4-125.9-4.4-217.1-28.3-290-56.1 47.6 111.2 102.6 171.6 102.9 356v1.7c0 188.2-57.5 249.5-105.7 365-.8 2.6-1.9 5.2-3.1 7.7-.2.4-.4.9-.6 1.3-11.3 28.1-22 59.5-31.2 96.7-18.8 75.6 38.5 148.9 116.5 148.9 55 0 103-37.8 116.7-91.8 10.8-42.9 27.2-80.2 45.2-118.1.4-.8.7-1.6 1.1-2.3 40-84 87.3-171.9 98.8-332.2-.1-3.7.2-7.4.7-11 1.1-20.3 1.7-41.7 1.7-64.4z"></path><path d="m1990.2 3029.9c-55-26.6-117.2-56.5-203-75-1.2-.2-2.4-.5-3.5-.8-56.2-11.8-115.9-17.5-182.5-17.5-57.4 0-106.3 4.1-149.2 11.1-3.2.9-6.6 1.6-10.1 1.9-.8.1-1.5.1-2.3.2-175.8 31.5-247.5 110.7-388.5 138.9-12 106.6-38.3 183.5-65.8 246.5 156.9-9 249.8-52.9 325.7-89.5 2-1.1 4.1-2.1 6.2-3 97.6-48.6 164.1-68.7 284-68.7 69.3 0 119.9 7.3 163.8 19.8 3.2.6 6.4 1.4 9.5 2.5 1.5.5 2.9 1.1 4.3 1.7 37.5 11.9 70.7 27.6 108 45.6 62.5 30.1 116.1 54.3 184.6 70.9 14.9-40.1 32-76.6 51.2-116.2 19.2-39.8 34-70.8 43.8-106.6-72.6-11.8-121.5-35.4-176.2-61.8z"></path><path d="m2454.6 3341c42.4-88.1 87.3-188 87.3-378.4 0-4.9 0-9.4 0-13.6-.2-2.3-.2-4.6-.1-6.9-2.5-137.1-30.1-228.1-60.8-300.2-63.5 13.1-131.1 19.6-205 19.6-17.7 0-34.7-.4-51.1-1 2.3 4.7 4.6 9.4 6.8 14.1 39.2 81.1 70.1 145.3 70.1 287.9 0 221.7-81.3 269-131.6 437.3-.3 1.3-.7 2.6-1.1 3.9-2.8 9.5-5.5 19.4-8 29.7-8.9 36.1-.9 73.5 22 102.8 61.2 78.3 186.4 52.5 211.2-45.7 13.4-53.1 35-97.1 57.7-144 .7-1.9 1.6-3.7 2.6-5.5z"></path><path d="m3474.5 3083.3c-150.7-38.1-233.5-146.6-523.7-146.6-132.1 0-222.5 23.6-288.2 48.5-2.2 119.9-21.5 209.4-45.9 281.5 103.2-47 169.5-97 355.1-92.4 3.1-.2 6.3-.1 9.5.3 171.3 6 231.9 66.6 354.2 113.3 4.7 1.1 9.1 2.8 13.3 4.9 21 7.5 43.8 14.6 69.3 21 75.5 18.7 147.2-38.6 147.2-115.2-.1-54.5-37.3-101.8-90.8-115.3z"></path><path d="m3249.6 2568.5c-38.9-80.4-69.3-144.6-69.3-286.2 0-67.8 7.6-119.4 19.5-163 .6-2.6 1.3-5.3 2.2-7.9 30-103.1 84.3-162.4 117.5-293.3-98.2-33.5-154.7-73.7-224.9-96.4-26 142.5-99 201.5-135.9 372.1-22.8 105.5-23.7 233.3-8.1 333.5.5 2.3.9 4.7 1.1 7.1 30.8 186.7 108.7 252.9 139.3 390.2 109.3 14.3 187.6 44.2 252 73.4-7.1-125.2-38-213.6-91.4-325.4-.7-1.4-1.4-2.7-2-4.1z"></path><path d="m2824.1 2388.8c-7.2-76-6.8-160.6 3.1-241.1-112.3 14.4-187.1 48-265.9 86-32.2 15.6-62.7 30.3-97.2 42-2.9 1.2-6 2.3-9.1 3-52.7 16.9-108.2 24.5-179 24.5-87.3 0-150.5-11.2-217.4-38.3-1.4-.5-2.8-1.1-4.1-1.7-90.5-37.6-175-97.6-341.8-116.8-10.3 34.9-16.4 76.1-16.4 136 0 35 1.9 68.8 8.3 102.3 76 11.4 126 35.5 182.5 62.8 74 35.8 145.6 67.5 246.1 83 2.9.2 5.8.6 8.6 1.3 39.7 5.7 83.8 8.9 134.3 8.9 82.7 0 155.7-8.9 222.9-27.2.2-.1.4-.1.6-.2s.5-.1.7-.2h.1c141.3-38.8 199.7-99.7 323.7-124.3z"></path><path d="m1618 2054c8.2-19.3 17.4-38.7 27.4-59.5 34.2-70.9 72.5-150.2 87.5-276.6-34.8-10-74.8-15.5-132-15.5-45.2 0-79.6 3.4-109.3 9.9-11.7 73.2-35.5 122.4-62.3 177.9-48.6 100.5-94 202.7-94 392.2 0 90.2 10.1 159.7 25.2 217.6 1 2.8 1.8 5.7 2.3 8.6 35.5 128.5 95.8 198.6 122.5 313.1 77.1-8.1 162.9-8.1 244.4 1.5-25.9-175.5-97.4-254.9-131.5-365.4-15.7-51.1-23-106.8-23-175.4 0-98.3 14.4-158.8 38.6-218.5 1.2-3.5 2.6-6.8 4.2-9.9z"></path><path d="m2180.9 1602.4c0-41.7-2.8-74.1-8.3-102.5-163.8-25.2-223.1-113.9-428.8-145.7-2.7-.2-5.4-.6-8-1.2-103-14.9-238.8-13.3-353.2 17-3.2 1.2-6.5 2.1-9.8 2.7-138.2 38.8-196.8 98.8-319.7 123.2 7.2 76.3 6.7 160.7-3.2 240.9 179.6-23.2 260.9-94.2 367.5-129.5 54.1-17.9 110.8-25.9 183.7-25.9 97.5 0 157.5 14.3 215 37.5 3.1 1 6 2.2 8.9 3.6 20.2 8.5 40.4 18.1 62 28.5 71 34.3 150.4 72.6 277.5 87.2 10.2-34.9 16.4-76 16.4-135.8z"></path><path d="m2541.9 1602.2c0-89.4-9.9-158.4-24.8-215.9-1.6-4-2.6-8.1-3.3-12.2-35.6-127.2-95.5-197-122-311.2-77.4 8.1-163.2 8.2-244.5-1.4 26 175.7 97.7 255.4 131.5 365.4 15.7 51.1 23 106.7 23 175.4 0 100.9-14.9 159.5-38.2 216.6-1.4 4.9-3.3 9.5-5.8 13.8-8 18.5-16.8 37.2-26.2 57.4-34.2 71-72.5 150.3-87.5 276.6 33.8 9.7 73.9 15.5 131.9 15.5 45.4 0 79.8-3.4 109.7-9.9 11.7-73.2 35.5-122.3 62.3-177.8 34-70.5 67.7-143.7 84-250.3.2-2.2.5-4.5 1-6.6 5.6-39.9 8.9-84.5 8.9-135.4z"></path><path d="m3418.1 1721c75.5 18.7 147.2-38.6 147.2-115.2 0-54.4-37.3-101.8-90.7-115.3-150.4-38-231-144.9-517.3-146.5-2.8.2-5.6.2-8.4 0-136.9.2-229.4 25.1-305 55.9 16.4 82.5 21.5 171 18 252.7 79.3-38.5 144.2-71.2 289-71.2 35.8 0 67 2.1 94.9 5.9h.4c3.7.2 7.4.8 10.9 1.6 141.2 22 194.9 87.4 345.8 128.2 2.2.5 4.4 1 6.5 1.7 2.8.7 5.7 1.5 8.7 2.2z"></path><path d="m3283.2 1280c-47.2-110.2-102-172.6-102.8-353.7-.1-1.7-.1-3.5 0-5.3.2-186.7 57.1-247.5 105.3-362.6.9-3 2-5.9 3.4-8.8.4-.8.8-1.6 1.2-2.3 11.2-27.9 21.8-59.1 30.9-95.9 18.8-75.7-38.6-148.9-116.5-148.9-55 0-103 37.8-116.7 91.8-35.2 139.5-129.1 219-145.3 455.3 0 2-.2 4-.4 5.9-1.3 20.9-2 43.1-2 66.6 0 138.3 24.9 230.7 53.1 301.6 126 4.6 217.1 28.5 289.8 56.3z"></path><path d="m2489.5 541.3c11.9-30.4 21.2-59.5 28.8-90 19-76.6-39.2-148.9-116.5-148.9-55 0-103 37.8-116.7 91.8-18.1 71.8-49.9 124.1-80 191.8 21.3 2.5 44.6 3.6 70.9 3.6 109.1 0 153.6-20 213.5-48.3z"></path><path d="m1214.4 899.4c2.1-120.7 21.2-209.7 45.4-281.1-16.4 7.5-32.1 15-47.7 22.6-.2.1-.3.1-.2.1-81.8 39.5-151.3 73.5-308.3 69.3-2 0-3.9 0-5.9-.2-175.2-5.6-232.7-66.9-358-114.1-3.1-.9-6.2-2-9.2-3.4 0 0-.1 0-.1-.1-21.5-7.8-45.1-15.1-71.5-21.7-74.8-18.6-147.2 38.2-147.2 115.2 0 54.4 37.3 101.8 90.7 115.3 136.3 34.5 215.9 124.1 436.9 143 2.3.1 4.6.2 6.9.6 24.8 1.9 51.3 3 79.9 3 132.2 0 222.5-23.6 288.3-48.5z"></path><path d="m1580.2 835.3c17.8-150.1 81.9-202 126.4-349 .6-2.4 1.3-4.7 2.1-7 8.7-29.6 11.1-42.2 11.1-57.1 0-65.9-53.8-119.7-120.2-119.7-55 0-103 37.8-116.7 91.8-38.9 153.8-147.7 232.6-147.7 527.9 0 131.6 21 225 61 320.4 63.4-13.1 130.9-19.5 204.7-19.5 17.8 0 34.9.4 51.4 1.1-40.7-84.3-77-149.5-77-302 0-28.9 1.3-54.7 3.8-78.1 0-.2 0-.4 0-.6.2-2.8.6-5.6 1.1-8.2z"></path><path d="m3418.1 924.7c75.2 18.7 147.2-38.3 147.2-115.2 0-54.4-37.3-101.8-90.7-115.3-37.3-9.4-68.9-22.4-100.9-37.2-38.2 81.2-66.4 123.8-71.6 228 33.4 14.6 70.9 28.5 116 39.7z"></path><path d="m3565.2 2402.2c0-54.4-37.3-101.8-90.7-115.3-64.3-16.2-112.3-43.2-170.3-70.2-2.1 20-3.1 41.7-3.1 65.6 0 106.1 18.4 151.2 48.1 214.2 22.9 8.2 45.6 15.1 68.8 20.9 9.6 2.4 19.3 3.6 28.9 3.6 65.3-.1 118.3-53.3 118.3-118.8z"></path><path d="m3239 3378.5c-86.9-38.8-130-71.5-227.1-80.9-18.3 40.2-35.2 82.9-48.3 135.7-18.8 75.7 38.7 148.9 116.5 148.9 55 0 103-37.8 116.7-91.8 10.6-42.1 25.7-76.9 42.2-111.9z"></path><path d="m1591.8 3490.2c18.1-71.9 49.9-124.1 80-191.7-21.2-2.4-44.4-3.6-70.6-3.6-105.4 0-150.1 18.4-213.8 48.4-11.9 30.4-21.2 59.4-28.7 89.8-18.8 75.7 38.6 148.9 116.5 148.9 54.9 0 102.9-37.8 116.6-91.8z"></path><path d="m517.7 3197.8c32.1-66.5 52.9-109.6 57.3-198.3-33.5-14.5-71-28.5-116-39.6-74.8-18.6-147.2 38.2-147.2 115.2 0 54.4 37.3 101.8 90.7 115.3 37.4 9.5 69 22.4 101.1 37.3 4.7-9.9 9.4-19.8 14.1-29.9z"></path><path d="m575.9 1602.2c0-98.4-15.2-145.4-47.9-214.1-22.9-8.3-45.6-15.1-68.9-20.9-74.9-18.6-147.2 38.2-147.2 115.2 0 54.4 37.3 101.8 90.7 115.3 64.2 16.2 112.2 43.1 170.2 70.2 2.1-20.1 3.1-41.8 3.1-65.7z"></path></g><g fill="#f5f5f5"><path d="m1320.3 2727.2c-16.9-35-36.8-76.1-54.5-125.5-66.7 26-147.9 48.5-254.1 56.6 25.2 74.8 46.1 172.3 46.1 303.7v1.2c34.5-9.8 64-24.1 101.6-42.2 54-26.1 118.8-57.3 206.8-78.9-9.9-40.3-25.4-72.4-45.9-114.9z"></path><path d="m1230.9 2091.5c18.8-99.3 51.9-176.1 89.5-254 12.3-25.6 22.9-47.6 31.6-69.9-78.1 37.4-174.4 80.1-326.5 93.5-21.4 77.6-50 136.8-73.7 185.9-23.3 48.3-40.7 84.3-50.1 134.9 7.9.3 16.1.4 24.6.4 151 0 186.8-40.4 304.6-90.8z"></path><path d="m1279.2 1275.8c-31.3-77.8-51.9-156.4-60.4-249.7-71.8 23.3-165.6 42.7-292.5 42.7-4.2 0-8.4 0-12.6-.1 9.7 29.5 22.7 56.4 38.2 88.4.1.2.2.4.1.3 27.3 56.5 60.2 124.7 82 218.7 86.5-18.7 140.7-62.3 245.2-100.3z"></path><path d="m2120.8 1363.1c-37.6-77.9-82.6-173.3-98.4-325.3-78.7-21.3-138.5-50.2-188-74.1-49-23.7-85.6-41.3-138.1-50.5 0 2.9-.1 5.9-.1 9 0 157.3 44.3 192.9 96.1 317.8 97.8 18.8 173.5 51.4 250.2 88.5 28.7 13.8 52.9 25.4 78.3 34.6z"></path><path d="m2028.8 2117.9c18.4-117.7 54.8-198.4 86.3-264.3-111.2-17-190.1-50.4-266.8-87-18.5 118.1-54.9 199.1-86.2 264.3 119.6 18.5 200.8 55.4 266.7 87z"></path><path d="m2180.9 2962.5c0-157.4-44.1-192.3-96-317.8-97.8-18.8-173.6-51.4-250.5-88.5-28.6-13.8-52.8-25.5-78.2-34.6 37.1 77.1 82.6 172.3 98.4 325.4 78.6 21.3 138.4 50.1 187.9 74 49.1 23.7 85.7 41.4 138.3 50.6.1-3 .1-6 .1-9.1z"></path><path d="m2925.3 2727.2c-27.3-56.6-60.3-124.7-82.1-218.8-86.7 18.8-140.3 62.3-245.3 100.4 31.4 77.9 51.9 156.5 60.4 249.7 71.8-23.3 165.6-42.7 292.5-42.7 4.3 0 8.5 0 12.7.1-9.7-29.6-22.7-56.5-38.2-88.7z"></path><path d="m2851.5 2023.6c21.4-77.6 49.9-136.9 73.7-186 23.3-48.2 40.7-84.3 50.1-134.8-7.9-.2-16-.4-24.5-.4-150.9 0-187.2 40.6-304.6 90.7-19.1 102.6-52.6 177.5-89.5 253.9-12.4 25.6-23 47.6-31.6 70 78-37.4 174.4-80 326.4-93.4z"></path><path d="m2611.4 1282.7c66.7-25.9 147.9-48.5 254.1-56.5-25.2-74.9-46.2-172.4-46.2-304 0-.3 0-.6 0-.9-34.5 9.8-64 24-101.6 42.1-53.9 26-118.6 57.3-206.5 78.9 20.4 81.4 63.4 137.2 100.2 240.4z"></path></g></g></g><g id="Master_Layer_2"></g></svg>